<svg xmlns="http://www.w3.org/2000/svg" viewBox="0 0 323 112" width="323" height="112" role="img" aria-label="Rafael Azzolini">
  <rect width="323" height="112" fill="#0d0d0d"/>
  <path d="M12 34 L12 12 L34 12" fill="none" stroke="#ffffff" stroke-width="4"/>
  <path d="M311 78 L311 100 L289 100" fill="none" stroke="#ffffff" stroke-width="4"/>
  <rect x="22" y="30" width="52" height="52" fill="#ffffff"/>
  <path transform="translate(26.9 68.41)" fill="#0d0d0d" d="M6.83 0L2.58 0L2.58-24.82L10.44-24.82Q12.92-24.82 14.74-23.90Q16.56-22.98 17.58-21.34Q18.60-19.69 18.60-17.44Q18.60-14.99 17.36-13.12Q16.12-11.25 14.01-10.47L18.94 0L14.18 0L9.86-9.86L6.83-9.86L6.83 0M6.83-21.08L6.83-13.60L10.44-13.60Q12.24-13.60 13.26-14.59Q14.28-15.57 14.28-17.31Q14.28-19.07 13.26-20.08Q12.24-21.08 10.44-21.08L6.83-21.08M25.94 0L21.59 0L27.85-24.82L33.32-24.82L39.61 0L35.26 0L33.90-6.02L27.30-6.02L25.94 0M29.58-16.18L28.08-9.49L33.12-9.49L31.62-16.15Q31.25-17.82 30.97-19.16Q30.70-20.50 30.60-21.11Q30.50-20.50 30.24-19.16Q29.99-17.82 29.58-16.18"/>
  <path transform="translate(92.71 68.05)" fill="#ffffff" d="M5.21 0L1.29 0L7.39-24.09L12.41-24.09L18.51 0L14.62 0L13.20-5.97L6.60-5.97L5.21 0M8.88-15.87L7.29-9.14L12.47-9.14L10.96-15.84Q10.56-17.56 10.28-18.91Q10-20.26 9.90-20.79Q9.80-20.26 9.54-18.93Q9.27-17.59 8.88-15.87M43.93 0L29.47 0L29.47-3.70L39.44-20.53L29.67-20.53L29.67-24.09L43.60-24.09L43.60-20.39L33.63-3.56L43.93-3.56L43.93 0M70.73 0L56.27 0L56.27-3.70L66.24-20.53L56.47-20.53L56.47-24.09L70.40-24.09L70.40-20.39L60.43-3.56L70.73-3.56L70.73 0M90.30 0.33Q88.02 0.33 86.36-0.53Q84.69-1.39 83.80-2.99Q82.91-4.59 82.91-6.73L82.91-17.36Q82.91-19.54 83.80-21.12Q84.69-22.70 86.36-23.56Q88.02-24.42 90.30-24.42Q92.61-24.42 94.26-23.56Q95.91-22.70 96.80-21.12Q97.69-19.54 97.69-17.36L97.69-6.73Q97.69-4.59 96.80-2.99Q95.91-1.39 94.26-0.53Q92.61 0.33 90.30 0.33M90.30-3.07Q92.05-3.07 92.96-4.03Q93.86-4.98 93.86-6.73L93.86-17.36Q93.86-19.14 92.96-20.08Q92.05-21.02 90.30-21.02Q88.55-21.02 87.64-20.08Q86.74-19.14 86.74-17.36L86.74-6.73Q86.74-4.98 87.66-4.03Q88.58-3.07 90.30-3.07M124.92 0L110.70 0L110.70-24.09L114.56-24.09L114.56-3.56L124.92-3.56L124.92 0M150.70 0L137.10 0L137.10-3.40L141.95-3.40L141.95-20.69L137.10-20.69L137.10-24.09L150.70-24.09L150.70-20.69L145.85-20.69L145.85-3.40L150.70-3.40L150.70 0M166.87 0L163.34 0L163.34-24.09L168.09-24.09L174.96-4.36Q174.89-5.35 174.78-6.72Q174.66-8.09 174.59-9.55Q174.53-11.02 174.53-12.18L174.53-24.09L178.06-24.09L178.06 0L173.31 0L166.48-19.73Q166.58-18.84 166.66-17.52Q166.74-16.20 166.81-14.80Q166.87-13.40 166.87-12.21L166.87 0M204.30 0L190.70 0L190.70-3.40L195.55-3.40L195.55-20.69L190.70-20.69L190.70-24.09L204.30-24.09L204.30-20.69L199.45-20.69L199.45-3.40L204.30-3.40"/>
</svg>
