<svg xmlns="http://www.w3.org/2000/svg" viewBox="0 0 64 64" width="64" height="64" role="img" aria-label="Rafael Azzolini">
  <rect width="64" height="64" fill="#0d0d0d"/>
  <path d="M7 22 L7 7 L22 7" fill="none" stroke="#ffffff" stroke-width="3.5"/>
  <path d="M57 42 L57 57 L42 57" fill="none" stroke="#ffffff" stroke-width="3.5"/>
  <path transform="translate(14.63 42.22)" fill="#ffffff" d="M5.63 0L2.13 0L2.13-20.44L8.60-20.44Q10.64-20.44 12.14-19.68Q13.64-18.93 14.48-17.57Q15.32-16.21 15.32-14.36Q15.32-12.35 14.29-10.81Q13.27-9.27 11.54-8.62L15.60 0L11.68 0L8.12-8.12L5.63-8.12L5.63 0M5.63-17.36L5.63-11.20L8.60-11.20Q10.08-11.20 10.92-12.01Q11.76-12.82 11.76-14.25Q11.76-15.71 10.92-16.53Q10.08-17.36 8.60-17.36L5.63-17.36M21.36 0L17.78 0L22.93-20.44L27.44-20.44L32.62 0L29.04 0L27.92-4.96L22.48-4.96L21.36 0M24.36-13.33L23.13-7.81L27.27-7.81L26.04-13.30Q25.73-14.67 25.51-15.78Q25.28-16.88 25.20-17.39Q25.12-16.88 24.91-15.78Q24.70-14.67 24.36-13.33"/>
</svg>
